<?xml version="1.0" encoding="UTF-8"?>
<svg version="1.1" xmlns="http://www.w3.org/2000/svg" width="76" height="76">
<path d="M0 0 C25.08 0 50.16 0 76 0 C76 25.08 76 50.16 76 76 C50.92 76 25.84 76 0 76 C0 50.92 0 25.84 0 0 Z " fill="#010101" transform="translate(0,0)"/>
<path d="M0 0 C4.53103546 -0.74596315 8.5010793 -1.03464881 13 0 C16.52987517 3.56788921 18.61996405 7.62096834 21 12 C21.97431636 13.02504031 22.96985878 14.0310784 24 15 C24.37809814 14.54560547 24.75619629 14.09121094 25.14575195 13.62304688 C26.85904606 11.57434321 28.5855013 9.53716105 30.3125 7.5 C30.90740234 6.78457031 31.50230469 6.06914062 32.11523438 5.33203125 C32.69208984 4.65527344 33.26894531 3.97851562 33.86328125 3.28125 C34.39219971 2.65283203 34.92111816 2.02441406 35.46606445 1.37695312 C37 0 37 0 40 0 C38.68761832 2.84258606 37.23292824 5.09408245 35.1796875 7.453125 C34.64472656 8.071875 34.10976563 8.690625 33.55859375 9.328125 C33.00300781 9.96234375 32.44742188 10.5965625 31.875 11.25 C31.31167969 11.8996875 30.74835937 12.549375 30.16796875 13.21875 C28.78235636 14.815727 27.39167246 16.40830122 26 18 C29.2561073 24.23500664 32.95478085 29.82996196 37.23046875 35.421875 C38.9292039 37.89685336 40.01003239 40.17732313 41 43 C36.8172009 43.69016185 33.15811924 43.92515611 29 43 C24.1525749 38.60560528 21.24661522 33.08365606 19 27 C18.34 27 17.68 27 17 27 C16.78601563 27.53109375 16.57203125 28.0621875 16.3515625 28.609375 C14.48655451 31.90817526 11.95775758 34.50991708 9.375 37.25 C8.6015625 38.08144531 8.6015625 38.08144531 7.8125 38.9296875 C6.54574965 40.2902712 5.27342185 41.64565837 4 43 C3.01 42.67 2.02 42.34 1 42 C10.41002278 30.47835991 10.41002278 30.47835991 15 25 C13.69444041 21.43509045 12.13513192 18.49811615 9.9609375 15.390625 C9.09082031 14.13572266 9.09082031 14.13572266 8.203125 12.85546875 C7.29820313 11.56576172 7.29820313 11.56576172 6.375 10.25 C5.17249538 8.52742482 3.97186481 6.80353932 2.7734375 5.078125 C2.24153809 4.31918945 1.70963867 3.56025391 1.16162109 2.77832031 C0 1 0 1 0 0 Z " fill="#EDEDED" transform="translate(17,16)"/>
<path d="M0 0 C2.65625 -0.453125 2.65625 -0.453125 6 0 C8.29398542 2.09157494 9.83831129 4.6445088 11.5 7.25 C12.53577785 8.79733073 13.57226808 10.34418477 14.609375 11.890625 C15.42438477 13.1271582 15.42438477 13.1271582 16.25585938 14.38867188 C19.32889748 18.9896259 22.55272528 23.48495168 25.75 28 C26.95599836 29.7063061 28.15936493 31.41447717 29.359375 33.125 C29.86952148 33.84945312 30.37966797 34.57390625 30.90527344 35.3203125 C32 37 32 37 32 38 C29.34375 38.453125 29.34375 38.453125 26 38 C23.70601458 35.90842506 22.16168871 33.3554912 20.5 30.75 C19.46422215 29.20266927 18.42773192 27.65581523 17.390625 26.109375 C16.84728516 25.28501953 16.30394531 24.46066406 15.74414062 23.61132812 C12.67110252 19.0103741 9.44727472 14.51504832 6.25 10 C5.04400164 8.2936939 3.84063507 6.58552283 2.640625 4.875 C1.87540527 3.78832031 1.87540527 3.78832031 1.09472656 2.6796875 C0 1 0 1 0 0 Z " fill="#0A0A0A" transform="translate(22,19)"/>
<path d="M0 0 C3.35199742 1.11733247 3.59059291 1.50287118 5.3046875 4.37890625 C5.72363281 5.05244141 6.14257812 5.72597656 6.57421875 6.41992188 C7.44104681 7.84771525 8.30045117 9.28004226 9.15234375 10.71679688 C10.34350308 12.61645922 11.4766849 14.35387411 13 16 C16.27266125 16.65550337 17.8297617 16.0567461 21 15 C21.66 16.32 22.32 17.64 23 19 C18.8172009 19.69016185 15.15811924 19.92515611 11 19 C6.1525749 14.60560528 3.24661522 9.08365606 1 3 C0.34 3 -0.32 3 -1 3 C-1.21398438 3.53109375 -1.42796875 4.0621875 -1.6484375 4.609375 C-3.51344549 7.90817526 -6.04224242 10.50991708 -8.625 13.25 C-9.140625 13.80429687 -9.65625 14.35859375 -10.1875 14.9296875 C-11.45425035 16.2902712 -12.72657815 17.64565837 -14 19 C-14.99 18.67 -15.98 18.34 -17 18 C-5.58297707 3.38515352 -5.58297707 3.38515352 0 0 Z " fill="#F1F1F1" transform="translate(35,40)"/>
<path d="M0 0 C-1.6616804 4.12417063 -4.62338018 7.06554039 -7.625 10.25 C-8.140625 10.80429687 -8.65625 11.35859375 -9.1875 11.9296875 C-10.45425035 13.2902712 -11.72657815 14.64565837 -13 16 C-13.99 15.67 -14.98 15.34 -16 15 C-14.61087093 13.2446735 -13.21338227 11.49596093 -11.8125 9.75 C-11.03519531 8.77546875 -10.25789063 7.8009375 -9.45703125 6.796875 C-3.48603352 0 -3.48603352 0 0 0 Z " fill="#EAEAEA" transform="translate(34,43)"/>
<path d="M0 0 C1.9375 0.3125 1.9375 0.3125 4 1 C4.33 1.99 4.66 2.98 5 4 C1.04 4 -2.92 4 -7 4 C-4.64046906 1.64046906 -3.22104383 1.50858587 0 1 C0 0.67 0 0.34 0 0 Z " fill="#FCFCFC" transform="translate(53,55)"/>
<path d="M0 0 C0.66 0.33 1.32 0.66 2 1 C0.70700306 3.88437779 -0.65941363 5.87219421 -3 8 C-3.99 7.67 -4.98 7.34 -6 7 C-4.02 4.69 -2.04 2.38 0 0 Z " fill="#F3F3F3" transform="translate(24,51)"/>
<path d="M0 0 C-1.36983503 3.16115776 -1.9890638 3.9927092 -5 6 C-5.66 5.34 -6.32 4.68 -7 4 C-3.375 0 -3.375 0 0 0 Z " fill="#E8E8E8" transform="translate(57,16)"/>
</svg>
